<svg xmlns="http://www.w3.org/2000/svg" width="14" height="14" viewBox="0 0 14 14"
fill="currentColor">
  <g id="Icons_Certificate_14px_Pink_500" data-name="Icons/Certificate/14px/Pink 500" transform="translate(0 0.25)">
    <path id="Icons_Certificate_14px_Pink_500-2" data-name="Icons/Certificate/14px/Pink 500" d="M12.54,6.748,13.8,5.517a.651.651,0,0,0-.292-1.1l-1.713-.437.483-1.7a.662.662,0,0,0-.811-.811l-1.7.483L9.333.239a.656.656,0,0,0-1.1-.292L7,1.215,5.77-.052a.656.656,0,0,0-1.1.292L4.23,1.953l-1.7-.483a.662.662,0,0,0-.811.811l.483,1.7L.494,4.414A.651.651,0,0,0,.2,5.517L1.46,6.748.2,7.978a.651.651,0,0,0,.292,1.1l1.713.437-.483,1.7a.662.662,0,0,0,.811.811l1.7-.483.437,1.714a.65.65,0,0,0,1.1.292L7,12.29l1.23,1.258a.653.653,0,0,0,1.1-.292l.437-1.714,1.7.483a.662.662,0,0,0,.811-.811l-.483-1.7,1.713-.437a.651.651,0,0,0,.292-1.1Z" />
  </g>
</svg>
