<svg xmlns="http://www.w3.org/2000/svg" width="12.001" height="12" viewBox="0 0 12.001 12">
  <path id="Icons_Paper_Plane_12px_Pink_600" data-name="Icons/Paper Plane/12px/Pink 600" d="M4.312-10.348l-9.75,5.623A1.125,1.125,0,0,0-5.3-2.712L-2.625-1.6V.375a1.126,1.126,0,0,0,2.03.67L.431-.34,3.054.743a1.137,1.137,0,0,0,.429.084A1.127,1.127,0,0,0,4.036.682,1.132,1.132,0,0,0,4.6-.127L5.988-9.2A1.127,1.127,0,0,0,4.312-10.348ZM-1.5.375V-1.139l.858.354ZM3.483-.3l-3.6-1.488L3.164-6.527a.376.376,0,0,0-.555-.5L-2.348-2.7-4.875-3.75l9.75-5.625Z" transform="translate(5.999 10.499)" fill="currentColor"/>
</svg>
