<svg xmlns="http://www.w3.org/2000/svg" width="20" height="14" viewBox="0 0 20 14">
  <path id="Icons_Space_Shuttle_16px_Yellow_600" data-name="Icons/Space Shuttle/16px/Yellow 600" d="M16.519,6.508A9.217,9.217,0,0,0,12.75,5.75H3.823a2.121,2.121,0,0,0-.522-.5H9.75C5.161,4.3,4.856,1,1,1H1V5H.5V1C-.328,1-1,1.9-1,3V5c-.725,0-1,.314-1,.75V7c0,.437.276.75,1,.75v.5c-.725,0-1,.314-1,.75v1.25c0,.437.276.75,1,.75v2c0,1.1.672,2,1.5,2V11H1v4H1c3.856,0,4.161-3.3,8.75-4.25H3.3a2.121,2.121,0,0,0,.522-.5H12.75a9.217,9.217,0,0,0,3.769-.758C17.446,9.058,18,8.5,18,8S17.446,6.942,16.519,6.508ZM13.25,9.25A.25.25,0,0,1,13,9V7a.25.25,0,0,1,.25-.25C14.247,6.75,14.248,9.25,13.25,9.25Z" transform="translate(2 -1)" fill="currentColor"/>
</svg>
