<svg xmlns="http://www.w3.org/2000/svg" width="15.75" height="18" viewBox="0 0 15.75 18">
  <path id="Icons_User_18px_White_75_" data-name="Icons/User/18px/White 75%" d="M12.15,10.938c-1.009,0-1.494.562-3.15.562s-2.137-.562-3.15-.562a4.726,4.726,0,0,0-4.725,4.725v.9A1.688,1.688,0,0,0,2.812,18.25H15.187a1.688,1.688,0,0,0,1.687-1.687v-.9A4.726,4.726,0,0,0,12.15,10.938Zm3.038,5.625H2.812v-.9A3.043,3.043,0,0,1,5.85,12.625,13.764,13.764,0,0,0,9,13.188a13.632,13.632,0,0,0,3.15-.562,3.043,3.043,0,0,1,3.038,3.038ZM9,10.375A5.062,5.062,0,1,0,3.937,5.313,5.064,5.064,0,0,0,9,10.375ZM9,1.938A3.375,3.375,0,1,1,5.625,5.313,3.38,3.38,0,0,1,9,1.938Z" transform="translate(-1.125 -0.25)" fill="currentColor"/>
</svg>