<svg xmlns="http://www.w3.org/2000/svg" width="593.238" height="252.218" viewBox="0 0 593.238 252.218">
  <g id="Group_576" data-name="Group 576" transform="translate(-336 -127)">
    <path id="Path_691" data-name="Path 691" d="M131.684,53.563l-62.642,137.6L6.4,53.563H0L66.268,197.494h5.569l66.24-143.931Z" transform="translate(336 127)" fill="#00aeef"/>
    <path id="Path_692" data-name="Path 692" d="M220.515,198.177a68.772,68.772,0,0,1-35.781-9.327,67.524,67.524,0,0,1-24.92-25.9,76.467,76.467,0,0,1-9.187-37.73,75.49,75.49,0,0,1,9.187-37.73,68.118,68.118,0,0,1,24.92-25.615,68.815,68.815,0,0,1,35.781-9.329,69.562,69.562,0,0,1,35.921,9.329,66.783,66.783,0,0,1,24.913,25.615,76.429,76.429,0,0,1,9.05,37.73,77.422,77.422,0,0,1-9.05,37.73,66.229,66.229,0,0,1-24.919,25.9,69.524,69.524,0,0,1-35.921,9.327m0-5.291a63.647,63.647,0,0,0,33-8.631,61.306,61.306,0,0,0,22.979-23.947,72.079,72.079,0,0,0,8.352-35.084,71.892,71.892,0,0,0-8.354-35.215A60.622,60.622,0,0,0,253.5,66.343a64.481,64.481,0,0,0-33-8.494,63.726,63.726,0,0,0-32.855,8.494,61.887,61.887,0,0,0-22.979,23.666,70.9,70.9,0,0,0-8.494,35.223,71.08,71.08,0,0,0,8.494,35.084A61.909,61.909,0,0,0,220.5,192.894" transform="translate(336 127)" fill="#00aeef"/>
    <path id="Path_693" data-name="Path 693" d="M593.221,125.39a76.678,76.678,0,0,0-9.05-37.794,66.846,66.846,0,0,0-24.919-25.66,69.476,69.476,0,0,0-35.921-9.344,67.626,67.626,0,0,0-60.7,35,75.717,75.717,0,0,0-9.19,37.794,76.693,76.693,0,0,0,9.19,37.793,67.587,67.587,0,0,0,24.919,25.94,68.689,68.689,0,0,0,35.781,9.343,69.434,69.434,0,0,0,35.921-9.343,66.3,66.3,0,0,0,24.919-25.94,70.519,70.519,0,0,0,4.188-9.207v44.5h4.862V125.39Zm-13.795,34.917a61.3,61.3,0,0,1-22.979,23.947,63.635,63.635,0,0,1-33,8.631,61.909,61.909,0,0,1-55.828-32.578,71.077,71.077,0,0,1-8.491-35.084A70.9,70.9,0,0,1,467.622,90,61.9,61.9,0,0,1,490.6,66.334a63.719,63.719,0,0,1,32.856-8.493,64.479,64.479,0,0,1,33,8.493A60.616,60.616,0,0,1,579.432,90a71.88,71.88,0,0,1,8.352,35.223,72.054,72.054,0,0,1-8.352,35.084" transform="translate(336 127)" fill="#00aeef"/>
    <path id="Path_694" data-name="Path 694" d="M434.882,53.563l-62.66,137.612L309.582,53.563h-6.4l65.967,143.313-10,22.084q-7.52,16.147-15.872,22.136a31.375,31.375,0,0,1-15.548,5.806v5.316a37.954,37.954,0,0,0,12.066-2.909,38.992,38.992,0,0,0,13.365-10.025,72.5,72.5,0,0,0,11.555-18.656L441.283,53.561Z" transform="translate(336 127)" fill="#00aeef"/>
    <g id="Group_574" data-name="Group 574" transform="translate(336 127)">
      <path id="Path_695" data-name="Path 695" d="M441.874,37.679l-4.606,10.053h6.385l3.789-8.379q.926-1.986,1.863-3.818L444.092,33.1c-.753,1.469-1.5,2.987-2.22,4.587" fill="#80d7f7"/>
      <path id="Path_696" data-name="Path 696" d="M453.429,19.368a58.9,58.9,0,0,0-6.664,9.233l5.2,2.435A50.564,50.564,0,0,1,460.493,19.9l-2.749-4.761a47.925,47.925,0,0,0-4.309,4.23" fill="#bbe3ce"/>
      <path id="Path_697" data-name="Path 697" d="M467.173,9.344a32.146,32.146,0,0,0-3.771,1.947l2.714,4.7a31.653,31.653,0,0,1,15.267-4.378v-5.3a38.737,38.737,0,0,0-14.212,3.028" fill="#ffe9cc"/>
      <path id="Path_698" data-name="Path 698" d="M506.039,8.909l-18.3,9.553L487.416,0Z" fill="#00aeef"/>
    </g>
    <rect id="Rectangle_701" data-name="Rectangle 701" width="593.238" height="252.218" transform="translate(336 127)" fill="none"/>
  </g>
</svg>