<svg xmlns="http://www.w3.org/2000/svg" fill="currentColor" viewBox="0 0 30 18"><path d="M22.12 18a8.71 8.71 0 0 1-6.05-2.44 9.1 9.1 0 0 1-.4-12.71 8.76 8.76 0 0 1 14 1.43L25.9 6.64a4.38 4.38 0 0 0-7-.72 4.55 4.55 0 0 0 .2 6.35 4.34 4.34 0 0 0 3.17 1.22 4.45 4.45 0 0 0 3.8-2.44L30 13.11A8.84 8.84 0 0 1 22.41 18Z" style="opacity:.6"/><path d="M17.7 8.84A8.94 8.94 0 0 0 8.85 0 8.93 8.93 0 0 0 0 9a8.94 8.94 0 0 0 8.85 9 8.71 8.71 0 0 0 4.43-1.22V18h4.42V8.84Zm-8.85 4.65A4.5 4.5 0 1 1 13.28 9a4.46 4.46 0 0 1-4.43 4.49Z"/></svg>